<svg id="Hz_logo" data-name="Hz logo" xmlns="http://www.w3.org/2000/svg" viewBox="0 0 279.01 51.64"><path d="M128.92,56c2.26-5.23,7.48-18.84,8.34-21.65a5.45,5.45,0,0,0,.35-1.48,1,1,0,0,0-.5-.9,4.86,4.86,0,0,0-1.49-.16c-.23,0-.43,0-.43-.23s.24-.31.86-.31c1.56,0,3.36.12,3.83.12.23,0,1.91-.12,3-.12.43,0,.66.08.66.27s-.16.27-.47.27a3.52,3.52,0,0,0-1.87.47c-.51.35-1.09,1-2.15,3.67-.42,1.09-2.38,5.77-4.36,10.57-2.38,5.69-4.14,9.9-5,11.82-1.1,2.34-1.25,3-1.64,3s-.67-.55-1.41-2.42L117.1,35c-.86-2.18-1.45-2.61-2.81-3a5.9,5.9,0,0,0-1.48-.16c-.24,0-.31-.11-.31-.27s.38-.27,1-.27c1.87,0,4.1.12,4.56.12s2.15-.12,3.63-.12c.7,0,1,.08,1,.27s-.11.27-.39.27a4.42,4.42,0,0,0-1.48.2.78.78,0,0,0-.51.78,14.76,14.76,0,0,0,1.06,3.24Z" transform="translate(-4.49 -10.18)"/><path d="M155.49,49.48c0,3.75,0,6.83.19,8.47.12,1.13.36,2,1.53,2.14a16.4,16.4,0,0,0,1.75.16c.23,0,.31.11.31.23s-.19.31-.62.31c-2.15,0-4.61-.11-4.8-.11s-2.65.11-3.82.11c-.43,0-.63-.07-.63-.31s.08-.23.32-.23a5.88,5.88,0,0,0,1.17-.16c.78-.15,1-1,1.13-2.14.19-1.64.19-4.72.19-8.47V42.62c0-6.09,0-7.18-.08-8.43s-.46-2-1.32-2.18a5,5,0,0,0-1.21-.16c-.16,0-.31-.07-.31-.23s.19-.31.62-.31c1.29,0,3.75.12,3.94.12s2.65-.12,3.82-.12c.43,0,.63.08.63.31s-.16.23-.32.23a5.67,5.67,0,0,0-1,.12c-1,.2-1.37.86-1.44,2.22s-.08,2.34-.08,8.43Z" transform="translate(-4.49 -10.18)"/><path d="M169.84,42.62c0-6.09,0-7.18-.08-8.43s-.39-1.95-1.68-2.22a7,7,0,0,0-1.32-.12c-.16,0-.32-.07-.32-.23s.2-.31.63-.31c1.75,0,4.05.12,4.29.12s2.61-.12,3.78-.12c.43,0,.62.08.62.31s-.15.23-.31.23a5.67,5.67,0,0,0-1,.12c-1.06.2-1.37.86-1.44,2.22s-.08,2.34-.08,8.43V45h.15c.67-.74,7.72-7.92,9.13-9.44,1.09-1.13,2.1-2.14,2.1-2.81a.77.77,0,0,0-.5-.82c-.2-.07-.35-.15-.35-.31s.19-.27.47-.27c.77,0,2,.12,2.92.12.19,0,2.77-.12,3.74-.12.43,0,.59.08.59.27s-.08.27-.39.27a5.81,5.81,0,0,0-2.19.55c-1.59.7-2.45,1.68-4.21,3.35-1,.94-7.76,7.57-8.58,8.55,1,1.13,9.13,9.51,10.73,11,3.27,3.05,3.94,3.67,5.81,4.45a7.15,7.15,0,0,0,2.42.51c.27,0,.5.08.5.23s-.19.31-.85.31h-2c-1.09,0-1.84,0-2.69-.07-2.07-.2-3.05-1.06-4.72-2.38S175,48,173.15,45.66H173v3.82c0,3.75,0,6.83.19,8.47.12,1.13.35,2,1.52,2.14a13.16,13.16,0,0,0,1.52.16c.24,0,.32.11.32.23s-.2.31-.63.31c-1.91,0-4.17-.11-4.48-.11s-2.58.11-3.75.11c-.43,0-.62-.07-.62-.31s.08-.23.31-.23a5.88,5.88,0,0,0,1.17-.16c.78-.15,1-1,1.13-2.14.2-1.64.2-4.72.2-8.47Z" transform="translate(-4.49 -10.18)"/><path d="M206.22,49.48c0,3.75,0,6.83.2,8.47.12,1.13.35,2,1.52,2.14a16.4,16.4,0,0,0,1.75.16c.24,0,.32.11.32.23s-.2.31-.63.31c-2.14,0-4.6-.11-4.79-.11s-2.66.11-3.83.11c-.43,0-.62-.07-.62-.31s.08-.23.31-.23a5.88,5.88,0,0,0,1.17-.16c.78-.15,1-1,1.13-2.14.2-1.64.2-4.72.2-8.47V42.62c0-6.09,0-7.18-.08-8.43s-.47-2-1.33-2.18a5,5,0,0,0-1.21-.16c-.15,0-.31-.07-.31-.23s.2-.31.63-.31c1.28,0,3.74.12,3.94.12s2.65-.12,3.82-.12c.43,0,.62.08.62.31s-.15.23-.31.23a5.76,5.76,0,0,0-1,.12c-1.05.2-1.36.86-1.44,2.22s-.08,2.34-.08,8.43Z" transform="translate(-4.49 -10.18)"/><path d="M222.44,55.49c.07,3.2.46,4.21,1.52,4.52a8.29,8.29,0,0,0,1.95.24c.19,0,.31.08.31.23s-.24.31-.7.31c-2.23,0-3.79-.11-4.14-.11s-2,.11-3.74.11c-.39,0-.63,0-.63-.31s.12-.23.32-.23a5.5,5.5,0,0,0,1.6-.24c1-.27,1.17-1.4,1.17-4.95l0-22.35c0-1.52.12-1.95.43-1.95s1,.86,1.37,1.25c.58.66,6.39,6.94,12.4,13.38,3.86,4.13,8.11,8.89,9.36,10.18l-.43-19.82c0-2.53-.31-3.39-1.52-3.7a10.14,10.14,0,0,0-1.91-.2c-.27,0-.31-.11-.31-.27s.31-.27.78-.27c1.75,0,3.63.12,4,.12s1.72-.12,3.32-.12c.43,0,.7,0,.7.27s-.16.27-.43.27A3.31,3.31,0,0,0,247,32c-1.29.27-1.45,1.13-1.45,3.47l-.08,22.86c0,2.57-.07,2.77-.35,2.77s-.78-.43-2.84-2.5c-.43-.39-6-6.12-10.18-10.57-4.53-4.87-8.93-9.79-10.18-11.19Z" transform="translate(-4.49 -10.18)"/><path d="M277.42,50.85c0-3.16-.19-3.59-1.75-4a7.15,7.15,0,0,0-1.33-.12c-.16,0-.31-.07-.31-.23s.19-.31.62-.31c1.76,0,4.22.12,4.41.12s2.65-.12,3.82-.12c.43,0,.63.08.63.31s-.16.23-.32.23a5.67,5.67,0,0,0-1,.12c-1.05.2-1.37.86-1.44,2.22s-.08,2.42-.08,4.06v4.37c0,1.75,0,1.83-.51,2.11a19.35,19.35,0,0,1-8.27,1.75c-3,0-8.5-.39-12.83-4.17a15.23,15.23,0,0,1-4.64-11.12c0-6.24,3-10.65,6.51-12.83a19.2,19.2,0,0,1,10.38-2.46,32.81,32.81,0,0,1,6,.67,20.22,20.22,0,0,0,3.16.39c.39,0,.47.19.47.35a49.61,49.61,0,0,0-.27,5.54c0,.62-.08.81-.35.81s-.24-.23-.27-.58a6,6,0,0,0-.83-2.58c-1-1.48-4.13-3.15-9.16-3.15a12.47,12.47,0,0,0-8.35,2.57c-2.26,1.79-3.86,5.34-3.86,9.91A15.88,15.88,0,0,0,262,55.49a14.2,14.2,0,0,0,10.22,4.17,10.54,10.54,0,0,0,4.44-.82,1.4,1.4,0,0,0,.78-1.36Z" transform="translate(-4.49 -10.18)"/><path d="M22.8,14.51H28C42.86,25.08,49.09,31.14,48,36.43c-1.25,6.18-9,10.76-25.16,17.89l-2.23-.12C39,46.45,45.53,40.1,44.2,34.94c-1.43-5.54-6.89-9.36-21.4-20.43Z" transform="translate(-4.49 -10.18)" fill="#ce1141" fill-rule="evenodd"/><path d="M33.12,14.48l5.16,0C53.61,25,57.55,32,55.21,36.22c-4.08,7.35-13.52,12-28.43,18l-2.18.14c16-6.93,26.68-12.86,27.3-19.37.53-5.43-4.16-9.45-18.78-20.47Z" transform="translate(-4.49 -10.18)" fill="#ce1141" fill-rule="evenodd"/><path d="M43.43,14.51h5.16c14.89,10.5,17.21,17,14,21.85-4.86,7.46-16,12-31.39,18H28.91c19.26-7.91,27.4-12.41,30-18.15,3-6.71-2.3-11.52-15.49-21.66Z" transform="translate(-4.49 -10.18)" fill="#ce1141" fill-rule="evenodd"/><path d="M53.74,14.51H58.9C72.83,26.24,73.39,31.86,70.37,36.08c-5.22,7.27-21.1,14.48-35.08,18.24H33C49.78,48.46,61.47,44.08,66.51,36c3.54-5.68,0-10.87-12.77-21.48Z" transform="translate(-4.49 -10.18)" fill="#ce1141" fill-rule="evenodd"/><path d="M64.05,14.51H69.2C77.76,23.4,80.81,31,77.78,36.15,71.72,46.39,52,51.39,39.43,54.32H37.12c17.12-4.67,32.52-10,36.79-18.18,2.48-4.75,1-10.93-9.86-21.63Z" transform="translate(-4.49 -10.18)" fill="#ce1141" fill-rule="evenodd"/><path d="M84.75,26c2.8,22.09-18,26-18.29,26.26-1.37.44-4.48,1.22-4.48,1.22C49.3,56,31.63,56.16,22.49,54.76,12.71,53.27,6,50.1,4.53,44.26c7.35,11.56,42.63,11.62,61.26,6,12-4.35,17.19-12,17-23.41h0c-.06-1.19-.09-4.25,1.18-5.63,1.75-1.91,6-1.31,6.33,1.59.56,4.17-5.14,4.22-4.9.83.11-1.64,2.76-2.31,3.25-.63a1.24,1.24,0,0,1-1.85,1.37c-.39-.28-.43-.46-.27-.74a.4.4,0,0,1,.64,0,.4.4,0,0,0,.58.22c.49-.26.07-1.36-.94-1a1.21,1.21,0,0,0-.06,2c2.23,1.05,3.27-1.67,2-3A2,2,0,0,0,87,21.28c-2.08.11-2.39,2.43-2.27,4.71" transform="translate(-4.49 -10.18)" fill="#ce1141" fill-rule="evenodd"/><path d="M71.32,61.3s3.77.21,9.6-2.5c5.47-2.53,17.21-11.34,5.88-29.61-.27,3.19-.27,13.34-10,20.14C67.72,56.54,28.64,59.87,12.5,53.6c-6.67-3.2-8-7.07-8-7.07S5.83,60.8,12.23,61.2Z" transform="translate(-4.49 -10.18)" fill-rule="evenodd"/><path d="M88.65,57a2.42,2.42,0,1,1-2.4,2.41A2.38,2.38,0,0,1,88.65,57Zm0,.38a2,2,0,1,0,1.94,2,2,2,0,0,0-1.94-2ZM88.2,60.8h-.43V58.11a5.09,5.09,0,0,1,.76-.06,1.47,1.47,0,0,1,.83.2.65.65,0,0,1,.25.56.67.67,0,0,1-.53.65v0c.24,0,.4.26.45.66a2.54,2.54,0,0,0,.17.66h-.45a2,2,0,0,1-.18-.69.49.49,0,0,0-.57-.46h-.3Zm0-1.49h.3c.36,0,.66-.13.66-.46s-.17-.47-.66-.47l-.3,0Z" transform="translate(-4.49 -10.18)"/><rect x="16.24" y="3.84" width="50.35" height="0.71"/><rect x="42.94" width="0.71" height="4.11"/></svg>