<svg id="logo" xmlns="http://www.w3.org/2000/svg" viewBox="0 0 228.15 124.16"><path d="M32.8,136.33c2.88-6.64,9.53-24,10.62-27.52a7.41,7.41,0,0,0,.44-1.88,1.22,1.22,0,0,0-.64-1.14,6.25,6.25,0,0,0-1.89-.2c-.29,0-.54,0-.54-.3s.3-.4,1.09-.4c2,0,4.26.15,4.86.15.3,0,2.43-.15,3.87-.15.54,0,.84.1.84.35s-.2.35-.59.35a4.57,4.57,0,0,0-2.39.59c-.64.45-1.38,1.29-2.72,4.66-.55,1.39-3,7.34-5.56,13.44-3,7.24-5.25,12.6-6.39,15-1.39,3-1.59,3.77-2.09,3.77s-.84-.7-1.78-3.08L17.78,109.6c-1.09-2.77-1.84-3.32-3.57-3.81a7.7,7.7,0,0,0-1.89-.2c-.29,0-.39-.15-.39-.35s.49-.35,1.29-.35c2.38,0,5.2.15,5.8.15s2.73-.15,4.61-.15c.89,0,1.34.1,1.34.35s-.15.35-.5.35a5.71,5.71,0,0,0-1.88.25,1,1,0,0,0-.65,1,19.27,19.27,0,0,0,1.34,4.11Z" transform="translate(-11.93 -18.92)"/><path d="M69.45,128c0,4.76,0,8.68.25,10.76.14,1.44.44,2.53,1.93,2.73a21.25,21.25,0,0,0,2.23.2c.3,0,.4.15.4.3s-.25.39-.8.39c-2.72,0-5.85-.14-6.1-.14s-3.37.14-4.86.14c-.54,0-.79-.09-.79-.39s.1-.3.4-.3a7.72,7.72,0,0,0,1.49-.2c1-.2,1.24-1.29,1.43-2.73.25-2.08.25-6,.25-10.76v-8.73c0-7.73,0-9.12-.1-10.71s-.59-2.53-1.68-2.77a6.49,6.49,0,0,0-1.54-.2c-.2,0-.4-.1-.4-.3s.25-.4.8-.4c1.63,0,4.76.15,5,.15s3.38-.15,4.86-.15c.55,0,.8.1.8.4s-.2.3-.4.3a7.34,7.34,0,0,0-1.24.15c-1.34.24-1.73,1.09-1.83,2.82s-.1,3-.1,10.71Z" transform="translate(-11.93 -18.92)"/><path d="M90.12,119.27c0-7.73,0-9.12-.1-10.71s-.49-2.48-2.13-2.82a9.13,9.13,0,0,0-1.68-.15c-.2,0-.4-.1-.4-.3s.25-.4.79-.4c2.23,0,5.16.15,5.46.15s3.32-.15,4.81-.15c.54,0,.79.1.79.4s-.2.3-.4.3a7.45,7.45,0,0,0-1.24.15c-1.33.24-1.73,1.09-1.83,2.82s-.1,3-.1,10.71v3h.2c.84-.94,9.82-10.07,11.6-12,1.39-1.44,2.68-2.73,2.68-3.57a1,1,0,0,0-.64-1c-.25-.1-.45-.2-.45-.4s.25-.35.6-.35c1,0,2.52.15,3.71.15.25,0,3.53-.15,4.77-.15.54,0,.74.1.74.35s-.1.35-.5.35a7.42,7.42,0,0,0-2.77.69c-2,.89-3.13,2.13-5.36,4.27-1.24,1.19-9.87,9.62-10.91,10.86,1.29,1.44,11.6,12.1,13.64,14,4.16,3.87,5,4.66,7.39,5.65a9,9,0,0,0,3.07.65c.35,0,.64.1.64.3s-.24.39-1.08.39h-2.53c-1.39,0-2.33,0-3.43-.09-2.62-.25-3.86-1.34-6-3-2.23-1.84-12.74-13.19-15.12-16.12h-.25V128c0,4.76,0,8.68.25,10.76.15,1.44.45,2.53,1.93,2.73a17,17,0,0,0,1.94.2c.29,0,.39.15.39.3s-.24.39-.79.39c-2.43,0-5.31-.14-5.7-.14s-3.28.14-4.76.14c-.55,0-.8-.09-.8-.39s.1-.3.4-.3a7.62,7.62,0,0,0,1.49-.2c1-.2,1.24-1.29,1.44-2.73.24-2.08.24-6,.24-10.76Z" transform="translate(-11.93 -18.92)"/><path d="M138.42,128c0,4.76,0,8.68.25,10.76.15,1.44.45,2.53,1.93,2.73a21.72,21.72,0,0,0,2.23.2c.3,0,.4.15.4.3s-.25.39-.79.39c-2.73,0-5.85-.14-6.1-.14s-3.37.14-4.86.14c-.55,0-.8-.09-.8-.39s.1-.3.4-.3a7.62,7.62,0,0,0,1.49-.2c1-.2,1.24-1.29,1.44-2.73.24-2.08.24-6,.24-10.76v-8.73c0-7.73,0-9.12-.09-10.71s-.6-2.53-1.69-2.77a6.49,6.49,0,0,0-1.54-.2c-.2,0-.4-.1-.4-.3s.25-.4.8-.4c1.64,0,4.76.15,5,.15s3.37-.15,4.86-.15c.54,0,.79.1.79.4s-.2.3-.39.3a7.23,7.23,0,0,0-1.24.15c-1.34.24-1.74,1.09-1.84,2.82s-.1,3-.1,10.71Z" transform="translate(-11.93 -18.92)"/><path d="M160.93,135.64c.1,4.07.6,5.36,1.94,5.75a10.76,10.76,0,0,0,2.48.3c.24,0,.39.1.39.3s-.29.39-.89.39c-2.83,0-4.81-.14-5.26-.14s-2.53.14-4.76.14c-.49,0-.79,0-.79-.39s.15-.3.4-.3a7.1,7.1,0,0,0,2-.3c1.24-.35,1.49-1.78,1.49-6.3l0-28.41c0-1.94.14-2.48.54-2.48s1.24,1.09,1.74,1.59c.74.84,8.13,8.82,15.77,17,4.91,5.25,10.31,11.3,11.9,12.94l-.55-25.19c0-3.23-.39-4.32-1.93-4.71a13.07,13.07,0,0,0-2.43-.25c-.35,0-.4-.15-.4-.35s.4-.35,1-.35c2.24,0,4.62.15,5.16.15s2.18-.15,4.22-.15c.54,0,.89,0,.89.35s-.2.35-.54.35a4.41,4.41,0,0,0-1.2.15c-1.63.34-1.83,1.43-1.83,4.41l-.1,29.06c0,3.27-.1,3.52-.45,3.52s-1-.54-3.62-3.17c-.54-.5-7.68-7.79-12.94-13.44-5.75-6.2-11.35-12.45-12.94-14.23Z" transform="translate(-11.93 -18.92)"/><path d="M232.34,129.74c0-4-.25-4.56-2.23-5.11a9.24,9.24,0,0,0-1.69-.15c-.2,0-.4-.1-.4-.3s.25-.39.8-.39c2.23,0,5.35.15,5.6.15s3.37-.15,4.86-.15c.55,0,.79.1.79.39s-.19.3-.39.3a7.23,7.23,0,0,0-1.24.15c-1.34.25-1.74,1.09-1.84,2.83-.1,1.58-.1,3.07-.1,5.15v5.56c0,2.23,0,2.33-.64,2.68-3.17,1.68-7.64,2.23-10.51,2.23-3.77,0-10.81-.5-16.32-5.31-3-2.63-5.9-7.93-5.9-14.13,0-7.94,3.87-13.54,8.28-16.32s9.37-3.12,13.19-3.12a42.32,42.32,0,0,1,7.59.84,24.53,24.53,0,0,0,4,.5c.49,0,.59.25.59.44a64.44,64.44,0,0,0-.34,7c0,.79-.1,1-.45,1s-.3-.3-.35-.75a7.68,7.68,0,0,0-1-3.27c-1.24-1.88-5.26-4-11.65-4-3.13,0-6.85.3-10.62,3.28-2.87,2.28-4.91,6.79-4.91,12.59a20.2,20.2,0,0,0,5.26,13.74,18.05,18.05,0,0,0,13,5.31,13.46,13.46,0,0,0,5.66-1,1.8,1.8,0,0,0,1-1.73Z" transform="translate(-11.93 -18.92)"/><path d="M92.6,25h7.32c20.76,14.81,29.48,23.29,28,30.69-1.76,8.67-12.68,15.07-35.24,25l-3.11-.17c25.73-10.84,34.87-19.73,33-26.95-2-7.77-9.65-13.11-30-28.62Z" transform="translate(-11.93 -18.92)" fill="#ce1141" fill-rule="evenodd"/><path d="M107.05,24.94l7.23,0c21.45,14.65,27,24.47,23.68,30.4-5.7,10.29-18.92,16.79-39.8,25.15l-3,.19c22.47-9.69,37.36-18,38.23-27.11.73-7.61-5.82-13.23-26.29-28.67Z" transform="translate(-11.93 -18.92)" fill="#ce1141" fill-rule="evenodd"/><path d="M121.49,25h7.22c20.84,14.71,24.09,23.74,19.62,30.6-6.8,10.45-22.36,16.76-44,25.14h-3.23c27-11.07,38.37-17.37,42-25.4,4.27-9.4-3.22-16.14-21.68-30.34Z" transform="translate(-11.93 -18.92)" fill="#ce1141" fill-rule="evenodd"/><path d="M135.92,25h7.21c19.52,16.43,20.3,24.3,16.07,30.21-7.3,10.18-29.55,20.27-49.11,25.53h-3.24c23.52-8.2,39.88-14.32,46.94-25.65,5-8,0-15.23-17.87-30.09Z" transform="translate(-11.93 -18.92)" fill="#ce1141" fill-rule="evenodd"/><path d="M150.35,25h7.21c12,12.45,16.26,23.11,12,30.3-8.47,14.35-36.08,21.34-53.69,25.44h-3.23c24-6.53,45.52-14,51.51-25.45C167.62,48.62,165.6,40,150.35,25Z" transform="translate(-11.93 -18.92)" fill="#ce1141" fill-rule="evenodd"/><path d="M179.34,41.05c3.92,30.94-25.26,36.48-25.61,36.78-1.93.62-6.27,1.71-6.27,1.71-17.77,3.53-42.5,3.76-55.29,1.81C78.47,79.26,69.11,74.81,67,66.65,77.3,82.83,126.7,82.91,152.78,75c16.87-6.08,24.08-16.79,23.88-32.78h0c-.08-1.66-.13-5.94,1.65-7.88,2.45-2.67,8.34-1.82,8.86,2.22.79,5.84-7.19,5.93-6.86,1.17.16-2.3,3.86-3.23,4.55-.88a1.73,1.73,0,0,1-2.59,1.92c-.55-.39-.59-.65-.38-1a.58.58,0,0,1,.91,0,.55.55,0,0,0,.8.32c.68-.37.1-1.92-1.31-1.41a1.69,1.69,0,0,0-.08,2.85c3.11,1.47,4.58-2.34,2.75-4.18a2.73,2.73,0,0,0-2.45-.85c-2.91.15-3.34,3.41-3.17,6.58" transform="translate(-11.93 -18.92)" fill="#ce1141" fill-rule="evenodd"/><path d="M160.53,90.51S165.8,90.79,174,87c7.65-3.55,24.09-15.88,8.22-41.46-.37,4.48-.37,18.68-14,28.2-12.71,10.09-67.43,14.76-90,6C68.83,75.24,67,69.82,67,69.82s1.86,20,10.83,20.54Z" transform="translate(-11.93 -18.92)" fill-rule="evenodd"/><path d="M184.8,84.46a3.39,3.39,0,1,1-3.36,3.38,3.33,3.33,0,0,1,3.36-3.38Zm0,.53a2.86,2.86,0,1,0,2.71,2.86A2.78,2.78,0,0,0,184.79,85Zm-.63,4.81h-.6V86a6.07,6.07,0,0,1,1.06-.09,2,2,0,0,1,1.17.28.9.9,0,0,1,.35.78.94.94,0,0,1-.74.92v0c.33.06.56.36.63.91a3,3,0,0,0,.24.93h-.63a2.66,2.66,0,0,1-.25-1,.7.7,0,0,0-.81-.66h-.42Zm0-2.08h.43c.5,0,.92-.18.92-.65s-.24-.66-.92-.66a3.73,3.73,0,0,0-.43,0Z" transform="translate(-11.93 -18.92)"/><rect x="77.78" y="5.37" width="70.5" height="1"/><rect x="115.16" width="1" height="5.75"/></svg>